<?xml version="1.0" encoding="utf-8" standalone="no"?>
<!DOCTYPE svg PUBLIC "-//W3C//DTD SVG 1.1//EN"
  "http://www.w3.org/Graphics/SVG/1.1/DTD/svg11.dtd">
<svg xmlns:xlink="http://www.w3.org/1999/xlink" width="612pt" height="345.6pt" viewBox="0 0 612 345.6" xmlns="http://www.w3.org/2000/svg" version="1.1">
 <metadata>
  <rdf:RDF xmlns:dc="http://purl.org/dc/elements/1.1/" xmlns:cc="http://creativecommons.org/ns#" xmlns:rdf="http://www.w3.org/1999/02/22-rdf-syntax-ns#">
   <cc:Work>
    <dc:type rdf:resource="http://purl.org/dc/dcmitype/StillImage"/>
    <dc:date>2026-06-01T09:34:22.276069</dc:date>
    <dc:format>image/svg+xml</dc:format>
    <dc:creator>
     <cc:Agent>
      <dc:title>Matplotlib v3.9.0, https://matplotlib.org/</dc:title>
     </cc:Agent>
    </dc:creator>
   </cc:Work>
  </rdf:RDF>
 </metadata>
 <defs>
  <style type="text/css">*{stroke-linejoin: round; stroke-linecap: butt}</style>
 </defs>
 <g id="figure_1">
  <g id="patch_1">
   <path d="M 0 345.6 
L 612 345.6 
L 612 0 
L 0 0 
z
" style="fill: #ffffff"/>
  </g>
  <g id="axes_1">
   <g id="patch_2">
    <path d="M 57.17 233.437779 
L 601.2 233.437779 
L 601.2 26.88 
L 57.17 26.88 
z
" style="fill: #ffffff"/>
   </g>
   <g id="patch_3">
    <path d="M 81.898636 233.437779 
L 140.083663 233.437779 
L 140.083663 186.82271 
L 81.898636 186.82271 
z
" clip-path="url(#p73cead9aad)" style="fill: #94a3b8"/>
   </g>
   <g id="patch_4">
    <path d="M 154.62992 233.437779 
L 212.814947 233.437779 
L 212.814947 36.716085 
L 154.62992 36.716085 
z
" clip-path="url(#p73cead9aad)" style="fill: #94a3b8"/>
   </g>
   <g id="patch_5">
    <path d="M 227.361203 233.437779 
L 285.54623 233.437779 
L 285.54623 149.439103 
L 227.361203 149.439103 
z
" clip-path="url(#p73cead9aad)" style="fill: #94a3b8"/>
   </g>
   <g id="patch_6">
    <path d="M 300.092487 233.437779 
L 358.277513 233.437779 
L 358.277513 130.403981 
L 300.092487 130.403981 
z
" clip-path="url(#p73cead9aad)" style="fill: #94a3b8"/>
   </g>
   <g id="patch_7">
    <path d="M 372.82377 233.437779 
L 431.008797 233.437779 
L 431.008797 101.98481 
L 372.82377 101.98481 
z
" clip-path="url(#p73cead9aad)" style="fill: #94a3b8"/>
   </g>
   <g id="patch_8">
    <path d="M 445.555053 233.437779 
L 503.74008 233.437779 
L 503.74008 123.766483 
L 445.555053 123.766483 
z
" clip-path="url(#p73cead9aad)" style="fill: #94a3b8"/>
   </g>
   <g id="patch_9">
    <path d="M 518.286337 233.437779 
L 576.471364 233.437779 
L 576.471364 228.326143 
L 518.286337 228.326143 
z
" clip-path="url(#p73cead9aad)" style="fill: #94a3b8"/>
   </g>
   <g id="patch_10">
    <path d="M 81.898636 233.437779 
L 140.083663 233.437779 
L 140.083663 199.868826 
L 81.898636 199.868826 
z
" clip-path="url(#p73cead9aad)" style="fill: #2563eb"/>
   </g>
   <g id="patch_11">
    <path d="M 154.62992 233.437779 
L 212.814947 233.437779 
L 212.814947 136.125962 
L 154.62992 136.125962 
z
" clip-path="url(#p73cead9aad)" style="fill: #2563eb"/>
   </g>
   <g id="patch_12">
    <path d="M 227.361203 233.437779 
L 285.54623 233.437779 
L 285.54623 207.574426 
L 227.361203 207.574426 
z
" clip-path="url(#p73cead9aad)" style="fill: #2563eb"/>
   </g>
   <g id="patch_13">
    <path d="M 300.092487 233.437779 
L 358.277513 233.437779 
L 358.277513 141.695356 
L 300.092487 141.695356 
z
" clip-path="url(#p73cead9aad)" style="fill: #2563eb"/>
   </g>
   <g id="patch_14">
    <path d="M 372.82377 233.437779 
L 431.008797 233.437779 
L 431.008797 131.014326 
L 372.82377 131.014326 
z
" clip-path="url(#p73cead9aad)" style="fill: #2563eb"/>
   </g>
   <g id="patch_15">
    <path d="M 445.555053 233.437779 
L 503.74008 233.437779 
L 503.74008 138.071435 
L 445.555053 138.071435 
z
" clip-path="url(#p73cead9aad)" style="fill: #2563eb"/>
   </g>
   <g id="patch_16">
    <path d="M 518.286337 233.437779 
L 576.471364 233.437779 
L 576.471364 228.898341 
L 518.286337 228.898341 
z
" clip-path="url(#p73cead9aad)" style="fill: #2563eb"/>
   </g>
   <g id="matplotlib.axis_1">
    <g id="xtick_1">
     <g id="line2d_1">
      <defs>
       <path id="me67bd42561" d="M 0 0 
L 0 3.5 
" style="stroke: #000000; stroke-width: 0.8"/>
      </defs>
      <g>
       <use xlink:href="#me67bd42561" x="110.99115" y="233.437779" style="stroke: #000000; stroke-width: 0.8"/>
      </g>
     </g>
     <g id="text_1">
      <!-- cspa -->
      <g transform="translate(89.873048 258.610406) rotate(-30) scale(0.1 -0.1)">
       <defs>
        <path id="DejaVuSans-63" d="M 3122 3366 
L 3122 2828 
Q 2878 2963 2633 3030 
Q 2388 3097 2138 3097 
Q 1578 3097 1268 2742 
Q 959 2388 959 1747 
Q 959 1106 1268 751 
Q 1578 397 2138 397 
Q 2388 397 2633 464 
Q 2878 531 3122 666 
L 3122 134 
Q 2881 22 2623 -34 
Q 2366 -91 2075 -91 
Q 1284 -91 818 406 
Q 353 903 353 1747 
Q 353 2603 823 3093 
Q 1294 3584 2113 3584 
Q 2378 3584 2631 3529 
Q 2884 3475 3122 3366 
z
" transform="scale(0.015625)"/>
        <path id="DejaVuSans-73" d="M 2834 3397 
L 2834 2853 
Q 2591 2978 2328 3040 
Q 2066 3103 1784 3103 
Q 1356 3103 1142 2972 
Q 928 2841 928 2578 
Q 928 2378 1081 2264 
Q 1234 2150 1697 2047 
L 1894 2003 
Q 2506 1872 2764 1633 
Q 3022 1394 3022 966 
Q 3022 478 2636 193 
Q 2250 -91 1575 -91 
Q 1294 -91 989 -36 
Q 684 19 347 128 
L 347 722 
Q 666 556 975 473 
Q 1284 391 1588 391 
Q 1994 391 2212 530 
Q 2431 669 2431 922 
Q 2431 1156 2273 1281 
Q 2116 1406 1581 1522 
L 1381 1569 
Q 847 1681 609 1914 
Q 372 2147 372 2553 
Q 372 3047 722 3315 
Q 1072 3584 1716 3584 
Q 2034 3584 2315 3537 
Q 2597 3491 2834 3397 
z
" transform="scale(0.015625)"/>
        <path id="DejaVuSans-70" d="M 1159 525 
L 1159 -1331 
L 581 -1331 
L 581 3500 
L 1159 3500 
L 1159 2969 
Q 1341 3281 1617 3432 
Q 1894 3584 2278 3584 
Q 2916 3584 3314 3078 
Q 3713 2572 3713 1747 
Q 3713 922 3314 415 
Q 2916 -91 2278 -91 
Q 1894 -91 1617 61 
Q 1341 213 1159 525 
z
M 3116 1747 
Q 3116 2381 2855 2742 
Q 2594 3103 2138 3103 
Q 1681 3103 1420 2742 
Q 1159 2381 1159 1747 
Q 1159 1113 1420 752 
Q 1681 391 2138 391 
Q 2594 391 2855 752 
Q 3116 1113 3116 1747 
z
" transform="scale(0.015625)"/>
        <path id="DejaVuSans-61" d="M 2194 1759 
Q 1497 1759 1228 1600 
Q 959 1441 959 1056 
Q 959 750 1161 570 
Q 1363 391 1709 391 
Q 2188 391 2477 730 
Q 2766 1069 2766 1631 
L 2766 1759 
L 2194 1759 
z
M 3341 1997 
L 3341 0 
L 2766 0 
L 2766 531 
Q 2569 213 2275 61 
Q 1981 -91 1556 -91 
Q 1019 -91 701 211 
Q 384 513 384 1019 
Q 384 1609 779 1909 
Q 1175 2209 1959 2209 
L 2766 2209 
L 2766 2266 
Q 2766 2663 2505 2880 
Q 2244 3097 1772 3097 
Q 1472 3097 1187 3025 
Q 903 2953 641 2809 
L 641 3341 
Q 956 3463 1253 3523 
Q 1550 3584 1831 3584 
Q 2591 3584 2966 3190 
Q 3341 2797 3341 1997 
z
" transform="scale(0.015625)"/>
       </defs>
       <use xlink:href="#DejaVuSans-63"/>
       <use xlink:href="#DejaVuSans-73" x="54.980469"/>
       <use xlink:href="#DejaVuSans-70" x="107.080078"/>
       <use xlink:href="#DejaVuSans-61" x="170.556641"/>
      </g>
     </g>
    </g>
    <g id="xtick_2">
     <g id="line2d_2">
      <g>
       <use xlink:href="#me67bd42561" x="183.722433" y="233.437779" style="stroke: #000000; stroke-width: 0.8"/>
      </g>
     </g>
     <g id="text_2">
      <!-- go_surface_or_plasma_membrane -->
      <g transform="translate(34.71299 332.368219) rotate(-30) scale(0.1 -0.1)">
       <defs>
        <path id="DejaVuSans-67" d="M 2906 1791 
Q 2906 2416 2648 2759 
Q 2391 3103 1925 3103 
Q 1463 3103 1205 2759 
Q 947 2416 947 1791 
Q 947 1169 1205 825 
Q 1463 481 1925 481 
Q 2391 481 2648 825 
Q 2906 1169 2906 1791 
z
M 3481 434 
Q 3481 -459 3084 -895 
Q 2688 -1331 1869 -1331 
Q 1566 -1331 1297 -1286 
Q 1028 -1241 775 -1147 
L 775 -588 
Q 1028 -725 1275 -790 
Q 1522 -856 1778 -856 
Q 2344 -856 2625 -561 
Q 2906 -266 2906 331 
L 2906 616 
Q 2728 306 2450 153 
Q 2172 0 1784 0 
Q 1141 0 747 490 
Q 353 981 353 1791 
Q 353 2603 747 3093 
Q 1141 3584 1784 3584 
Q 2172 3584 2450 3431 
Q 2728 3278 2906 2969 
L 2906 3500 
L 3481 3500 
L 3481 434 
z
" transform="scale(0.015625)"/>
        <path id="DejaVuSans-6f" d="M 1959 3097 
Q 1497 3097 1228 2736 
Q 959 2375 959 1747 
Q 959 1119 1226 758 
Q 1494 397 1959 397 
Q 2419 397 2687 759 
Q 2956 1122 2956 1747 
Q 2956 2369 2687 2733 
Q 2419 3097 1959 3097 
z
M 1959 3584 
Q 2709 3584 3137 3096 
Q 3566 2609 3566 1747 
Q 3566 888 3137 398 
Q 2709 -91 1959 -91 
Q 1206 -91 779 398 
Q 353 888 353 1747 
Q 353 2609 779 3096 
Q 1206 3584 1959 3584 
z
" transform="scale(0.015625)"/>
        <path id="DejaVuSans-5f" d="M 3263 -1063 
L 3263 -1509 
L -63 -1509 
L -63 -1063 
L 3263 -1063 
z
" transform="scale(0.015625)"/>
        <path id="DejaVuSans-75" d="M 544 1381 
L 544 3500 
L 1119 3500 
L 1119 1403 
Q 1119 906 1312 657 
Q 1506 409 1894 409 
Q 2359 409 2629 706 
Q 2900 1003 2900 1516 
L 2900 3500 
L 3475 3500 
L 3475 0 
L 2900 0 
L 2900 538 
Q 2691 219 2414 64 
Q 2138 -91 1772 -91 
Q 1169 -91 856 284 
Q 544 659 544 1381 
z
M 1991 3584 
L 1991 3584 
z
" transform="scale(0.015625)"/>
        <path id="DejaVuSans-72" d="M 2631 2963 
Q 2534 3019 2420 3045 
Q 2306 3072 2169 3072 
Q 1681 3072 1420 2755 
Q 1159 2438 1159 1844 
L 1159 0 
L 581 0 
L 581 3500 
L 1159 3500 
L 1159 2956 
Q 1341 3275 1631 3429 
Q 1922 3584 2338 3584 
Q 2397 3584 2469 3576 
Q 2541 3569 2628 3553 
L 2631 2963 
z
" transform="scale(0.015625)"/>
        <path id="DejaVuSans-66" d="M 2375 4863 
L 2375 4384 
L 1825 4384 
Q 1516 4384 1395 4259 
Q 1275 4134 1275 3809 
L 1275 3500 
L 2222 3500 
L 2222 3053 
L 1275 3053 
L 1275 0 
L 697 0 
L 697 3053 
L 147 3053 
L 147 3500 
L 697 3500 
L 697 3744 
Q 697 4328 969 4595 
Q 1241 4863 1831 4863 
L 2375 4863 
z
" transform="scale(0.015625)"/>
        <path id="DejaVuSans-65" d="M 3597 1894 
L 3597 1613 
L 953 1613 
Q 991 1019 1311 708 
Q 1631 397 2203 397 
Q 2534 397 2845 478 
Q 3156 559 3463 722 
L 3463 178 
Q 3153 47 2828 -22 
Q 2503 -91 2169 -91 
Q 1331 -91 842 396 
Q 353 884 353 1716 
Q 353 2575 817 3079 
Q 1281 3584 2069 3584 
Q 2775 3584 3186 3129 
Q 3597 2675 3597 1894 
z
M 3022 2063 
Q 3016 2534 2758 2815 
Q 2500 3097 2075 3097 
Q 1594 3097 1305 2825 
Q 1016 2553 972 2059 
L 3022 2063 
z
" transform="scale(0.015625)"/>
        <path id="DejaVuSans-6c" d="M 603 4863 
L 1178 4863 
L 1178 0 
L 603 0 
L 603 4863 
z
" transform="scale(0.015625)"/>
        <path id="DejaVuSans-6d" d="M 3328 2828 
Q 3544 3216 3844 3400 
Q 4144 3584 4550 3584 
Q 5097 3584 5394 3201 
Q 5691 2819 5691 2113 
L 5691 0 
L 5113 0 
L 5113 2094 
Q 5113 2597 4934 2840 
Q 4756 3084 4391 3084 
Q 3944 3084 3684 2787 
Q 3425 2491 3425 1978 
L 3425 0 
L 2847 0 
L 2847 2094 
Q 2847 2600 2669 2842 
Q 2491 3084 2119 3084 
Q 1678 3084 1418 2786 
Q 1159 2488 1159 1978 
L 1159 0 
L 581 0 
L 581 3500 
L 1159 3500 
L 1159 2956 
Q 1356 3278 1631 3431 
Q 1906 3584 2284 3584 
Q 2666 3584 2933 3390 
Q 3200 3197 3328 2828 
z
" transform="scale(0.015625)"/>
        <path id="DejaVuSans-62" d="M 3116 1747 
Q 3116 2381 2855 2742 
Q 2594 3103 2138 3103 
Q 1681 3103 1420 2742 
Q 1159 2381 1159 1747 
Q 1159 1113 1420 752 
Q 1681 391 2138 391 
Q 2594 391 2855 752 
Q 3116 1113 3116 1747 
z
M 1159 2969 
Q 1341 3281 1617 3432 
Q 1894 3584 2278 3584 
Q 2916 3584 3314 3078 
Q 3713 2572 3713 1747 
Q 3713 922 3314 415 
Q 2916 -91 2278 -91 
Q 1894 -91 1617 61 
Q 1341 213 1159 525 
L 1159 0 
L 581 0 
L 581 4863 
L 1159 4863 
L 1159 2969 
z
" transform="scale(0.015625)"/>
        <path id="DejaVuSans-6e" d="M 3513 2113 
L 3513 0 
L 2938 0 
L 2938 2094 
Q 2938 2591 2744 2837 
Q 2550 3084 2163 3084 
Q 1697 3084 1428 2787 
Q 1159 2491 1159 1978 
L 1159 0 
L 581 0 
L 581 3500 
L 1159 3500 
L 1159 2956 
Q 1366 3272 1645 3428 
Q 1925 3584 2291 3584 
Q 2894 3584 3203 3211 
Q 3513 2838 3513 2113 
z
" transform="scale(0.015625)"/>
       </defs>
       <use xlink:href="#DejaVuSans-67"/>
       <use xlink:href="#DejaVuSans-6f" x="63.476562"/>
       <use xlink:href="#DejaVuSans-5f" x="124.658203"/>
       <use xlink:href="#DejaVuSans-73" x="174.658203"/>
       <use xlink:href="#DejaVuSans-75" x="226.757812"/>
       <use xlink:href="#DejaVuSans-72" x="290.136719"/>
       <use xlink:href="#DejaVuSans-66" x="331.25"/>
       <use xlink:href="#DejaVuSans-61" x="366.455078"/>
       <use xlink:href="#DejaVuSans-63" x="427.734375"/>
       <use xlink:href="#DejaVuSans-65" x="482.714844"/>
       <use xlink:href="#DejaVuSans-5f" x="544.238281"/>
       <use xlink:href="#DejaVuSans-6f" x="594.238281"/>
       <use xlink:href="#DejaVuSans-72" x="655.419922"/>
       <use xlink:href="#DejaVuSans-5f" x="696.533203"/>
       <use xlink:href="#DejaVuSans-70" x="746.533203"/>
       <use xlink:href="#DejaVuSans-6c" x="810.009766"/>
       <use xlink:href="#DejaVuSans-61" x="837.792969"/>
       <use xlink:href="#DejaVuSans-73" x="899.072266"/>
       <use xlink:href="#DejaVuSans-6d" x="951.171875"/>
       <use xlink:href="#DejaVuSans-61" x="1048.583984"/>
       <use xlink:href="#DejaVuSans-5f" x="1109.863281"/>
       <use xlink:href="#DejaVuSans-6d" x="1159.863281"/>
       <use xlink:href="#DejaVuSans-65" x="1257.275391"/>
       <use xlink:href="#DejaVuSans-6d" x="1318.798828"/>
       <use xlink:href="#DejaVuSans-62" x="1416.210938"/>
       <use xlink:href="#DejaVuSans-72" x="1479.6875"/>
       <use xlink:href="#DejaVuSans-61" x="1520.800781"/>
       <use xlink:href="#DejaVuSans-6e" x="1582.080078"/>
       <use xlink:href="#DejaVuSans-65" x="1645.458984"/>
      </g>
     </g>
    </g>
    <g id="xtick_3">
     <g id="line2d_3">
      <g>
       <use xlink:href="#me67bd42561" x="256.453717" y="233.437779" style="stroke: #000000; stroke-width: 0.8"/>
      </g>
     </g>
     <g id="text_3">
      <!-- hpa_plasma_membrane -->
      <g transform="translate(151.473547 306.947906) rotate(-30) scale(0.1 -0.1)">
       <defs>
        <path id="DejaVuSans-68" d="M 3513 2113 
L 3513 0 
L 2938 0 
L 2938 2094 
Q 2938 2591 2744 2837 
Q 2550 3084 2163 3084 
Q 1697 3084 1428 2787 
Q 1159 2491 1159 1978 
L 1159 0 
L 581 0 
L 581 4863 
L 1159 4863 
L 1159 2956 
Q 1366 3272 1645 3428 
Q 1925 3584 2291 3584 
Q 2894 3584 3203 3211 
Q 3513 2838 3513 2113 
z
" transform="scale(0.015625)"/>
       </defs>
       <use xlink:href="#DejaVuSans-68"/>
       <use xlink:href="#DejaVuSans-70" x="63.378906"/>
       <use xlink:href="#DejaVuSans-61" x="126.855469"/>
       <use xlink:href="#DejaVuSans-5f" x="188.134766"/>
       <use xlink:href="#DejaVuSans-70" x="238.134766"/>
       <use xlink:href="#DejaVuSans-6c" x="301.611328"/>
       <use xlink:href="#DejaVuSans-61" x="329.394531"/>
       <use xlink:href="#DejaVuSans-73" x="390.673828"/>
       <use xlink:href="#DejaVuSans-6d" x="442.773438"/>
       <use xlink:href="#DejaVuSans-61" x="540.185547"/>
       <use xlink:href="#DejaVuSans-5f" x="601.464844"/>
       <use xlink:href="#DejaVuSans-6d" x="651.464844"/>
       <use xlink:href="#DejaVuSans-65" x="748.876953"/>
       <use xlink:href="#DejaVuSans-6d" x="810.400391"/>
       <use xlink:href="#DejaVuSans-62" x="907.8125"/>
       <use xlink:href="#DejaVuSans-72" x="971.289062"/>
       <use xlink:href="#DejaVuSans-61" x="1012.402344"/>
       <use xlink:href="#DejaVuSans-6e" x="1073.681641"/>
       <use xlink:href="#DejaVuSans-65" x="1137.060547"/>
      </g>
     </g>
    </g>
    <g id="xtick_4">
     <g id="line2d_4">
      <g>
       <use xlink:href="#me67bd42561" x="329.185" y="233.437779" style="stroke: #000000; stroke-width: 0.8"/>
      </g>
     </g>
     <g id="text_4">
      <!-- surfy -->
      <g transform="translate(306.562179 259.479156) rotate(-30) scale(0.1 -0.1)">
       <defs>
        <path id="DejaVuSans-79" d="M 2059 -325 
Q 1816 -950 1584 -1140 
Q 1353 -1331 966 -1331 
L 506 -1331 
L 506 -850 
L 844 -850 
Q 1081 -850 1212 -737 
Q 1344 -625 1503 -206 
L 1606 56 
L 191 3500 
L 800 3500 
L 1894 763 
L 2988 3500 
L 3597 3500 
L 2059 -325 
z
" transform="scale(0.015625)"/>
       </defs>
       <use xlink:href="#DejaVuSans-73"/>
       <use xlink:href="#DejaVuSans-75" x="52.099609"/>
       <use xlink:href="#DejaVuSans-72" x="115.478516"/>
       <use xlink:href="#DejaVuSans-66" x="156.591797"/>
       <use xlink:href="#DejaVuSans-79" x="190.046875"/>
      </g>
     </g>
    </g>
    <g id="xtick_5">
     <g id="line2d_5">
      <g>
       <use xlink:href="#me67bd42561" x="401.916283" y="233.437779" style="stroke: #000000; stroke-width: 0.8"/>
      </g>
     </g>
     <g id="text_5">
      <!-- tcsa -->
      <g transform="translate(382.901 257.396344) rotate(-30) scale(0.1 -0.1)">
       <defs>
        <path id="DejaVuSans-74" d="M 1172 4494 
L 1172 3500 
L 2356 3500 
L 2356 3053 
L 1172 3053 
L 1172 1153 
Q 1172 725 1289 603 
Q 1406 481 1766 481 
L 2356 481 
L 2356 0 
L 1766 0 
Q 1100 0 847 248 
Q 594 497 594 1153 
L 594 3053 
L 172 3053 
L 172 3500 
L 594 3500 
L 594 4494 
L 1172 4494 
z
" transform="scale(0.015625)"/>
       </defs>
       <use xlink:href="#DejaVuSans-74"/>
       <use xlink:href="#DejaVuSans-63" x="39.208984"/>
       <use xlink:href="#DejaVuSans-73" x="94.189453"/>
       <use xlink:href="#DejaVuSans-61" x="146.289062"/>
      </g>
     </g>
    </g>
    <g id="xtick_6">
     <g id="line2d_6">
      <g>
       <use xlink:href="#me67bd42561" x="474.647567" y="233.437779" style="stroke: #000000; stroke-width: 0.8"/>
      </g>
     </g>
     <g id="text_6">
      <!-- uniprot_extracellular_topology -->
      <g transform="translate(341.819268 323.026031) rotate(-30) scale(0.1 -0.1)">
       <defs>
        <path id="DejaVuSans-69" d="M 603 3500 
L 1178 3500 
L 1178 0 
L 603 0 
L 603 3500 
z
M 603 4863 
L 1178 4863 
L 1178 4134 
L 603 4134 
L 603 4863 
z
" transform="scale(0.015625)"/>
        <path id="DejaVuSans-78" d="M 3513 3500 
L 2247 1797 
L 3578 0 
L 2900 0 
L 1881 1375 
L 863 0 
L 184 0 
L 1544 1831 
L 300 3500 
L 978 3500 
L 1906 2253 
L 2834 3500 
L 3513 3500 
z
" transform="scale(0.015625)"/>
       </defs>
       <use xlink:href="#DejaVuSans-75"/>
       <use xlink:href="#DejaVuSans-6e" x="63.378906"/>
       <use xlink:href="#DejaVuSans-69" x="126.757812"/>
       <use xlink:href="#DejaVuSans-70" x="154.541016"/>
       <use xlink:href="#DejaVuSans-72" x="218.017578"/>
       <use xlink:href="#DejaVuSans-6f" x="256.880859"/>
       <use xlink:href="#DejaVuSans-74" x="318.0625"/>
       <use xlink:href="#DejaVuSans-5f" x="357.271484"/>
       <use xlink:href="#DejaVuSans-65" x="407.271484"/>
       <use xlink:href="#DejaVuSans-78" x="467.044922"/>
       <use xlink:href="#DejaVuSans-74" x="526.224609"/>
       <use xlink:href="#DejaVuSans-72" x="565.433594"/>
       <use xlink:href="#DejaVuSans-61" x="606.546875"/>
       <use xlink:href="#DejaVuSans-63" x="667.826172"/>
       <use xlink:href="#DejaVuSans-65" x="722.806641"/>
       <use xlink:href="#DejaVuSans-6c" x="784.330078"/>
       <use xlink:href="#DejaVuSans-6c" x="812.113281"/>
       <use xlink:href="#DejaVuSans-75" x="839.896484"/>
       <use xlink:href="#DejaVuSans-6c" x="903.275391"/>
       <use xlink:href="#DejaVuSans-61" x="931.058594"/>
       <use xlink:href="#DejaVuSans-72" x="992.337891"/>
       <use xlink:href="#DejaVuSans-5f" x="1033.451172"/>
       <use xlink:href="#DejaVuSans-74" x="1083.451172"/>
       <use xlink:href="#DejaVuSans-6f" x="1122.660156"/>
       <use xlink:href="#DejaVuSans-70" x="1183.841797"/>
       <use xlink:href="#DejaVuSans-6f" x="1247.318359"/>
       <use xlink:href="#DejaVuSans-6c" x="1308.5"/>
       <use xlink:href="#DejaVuSans-6f" x="1336.283203"/>
       <use xlink:href="#DejaVuSans-67" x="1397.464844"/>
       <use xlink:href="#DejaVuSans-79" x="1460.941406"/>
      </g>
     </g>
    </g>
    <g id="xtick_7">
     <g id="line2d_7">
      <g>
       <use xlink:href="#me67bd42561" x="547.37885" y="233.437779" style="stroke: #000000; stroke-width: 0.8"/>
      </g>
     </g>
     <g id="text_7">
      <!-- uniprot_gpi_anchor -->
      <g transform="translate(463.292896 294.884625) rotate(-30) scale(0.1 -0.1)">
       <use xlink:href="#DejaVuSans-75"/>
       <use xlink:href="#DejaVuSans-6e" x="63.378906"/>
       <use xlink:href="#DejaVuSans-69" x="126.757812"/>
       <use xlink:href="#DejaVuSans-70" x="154.541016"/>
       <use xlink:href="#DejaVuSans-72" x="218.017578"/>
       <use xlink:href="#DejaVuSans-6f" x="256.880859"/>
       <use xlink:href="#DejaVuSans-74" x="318.0625"/>
       <use xlink:href="#DejaVuSans-5f" x="357.271484"/>
       <use xlink:href="#DejaVuSans-67" x="407.271484"/>
       <use xlink:href="#DejaVuSans-70" x="470.748047"/>
       <use xlink:href="#DejaVuSans-69" x="534.224609"/>
       <use xlink:href="#DejaVuSans-5f" x="562.007812"/>
       <use xlink:href="#DejaVuSans-61" x="612.007812"/>
       <use xlink:href="#DejaVuSans-6e" x="673.287109"/>
       <use xlink:href="#DejaVuSans-63" x="736.666016"/>
       <use xlink:href="#DejaVuSans-68" x="791.646484"/>
       <use xlink:href="#DejaVuSans-6f" x="855.025391"/>
       <use xlink:href="#DejaVuSans-72" x="916.207031"/>
      </g>
     </g>
    </g>
   </g>
   <g id="matplotlib.axis_2">
    <g id="ytick_1">
     <g id="line2d_8">
      <path d="M 57.17 233.437779 
L 601.2 233.437779 
" clip-path="url(#p73cead9aad)" style="fill: none; stroke: #b0b0b0; stroke-opacity: 0.3; stroke-width: 0.35; stroke-linecap: square"/>
     </g>
     <g id="line2d_9">
      <defs>
       <path id="m27d2bfb9a8" d="M 0 0 
L -3.5 0 
" style="stroke: #000000; stroke-width: 0.8"/>
      </defs>
      <g>
       <use xlink:href="#m27d2bfb9a8" x="57.17" y="233.437779" style="stroke: #000000; stroke-width: 0.8"/>
      </g>
     </g>
     <g id="text_8">
      <!-- 0 -->
      <g transform="translate(43.8075 237.236998) scale(0.1 -0.1)">
       <defs>
        <path id="DejaVuSans-30" d="M 2034 4250 
Q 1547 4250 1301 3770 
Q 1056 3291 1056 2328 
Q 1056 1369 1301 889 
Q 1547 409 2034 409 
Q 2525 409 2770 889 
Q 3016 1369 3016 2328 
Q 3016 3291 2770 3770 
Q 2525 4250 2034 4250 
z
M 2034 4750 
Q 2819 4750 3233 4129 
Q 3647 3509 3647 2328 
Q 3647 1150 3233 529 
Q 2819 -91 2034 -91 
Q 1250 -91 836 529 
Q 422 1150 422 2328 
Q 422 3509 836 4129 
Q 1250 4750 2034 4750 
z
" transform="scale(0.015625)"/>
       </defs>
       <use xlink:href="#DejaVuSans-30"/>
      </g>
     </g>
    </g>
    <g id="ytick_2">
     <g id="line2d_10">
      <path d="M 57.17 195.291241 
L 601.2 195.291241 
" clip-path="url(#p73cead9aad)" style="fill: none; stroke: #b0b0b0; stroke-opacity: 0.3; stroke-width: 0.35; stroke-linecap: square"/>
     </g>
     <g id="line2d_11">
      <g>
       <use xlink:href="#m27d2bfb9a8" x="57.17" y="195.291241" style="stroke: #000000; stroke-width: 0.8"/>
      </g>
     </g>
     <g id="text_9">
      <!-- 1000 -->
      <g transform="translate(24.72 199.09046) scale(0.1 -0.1)">
       <defs>
        <path id="DejaVuSans-31" d="M 794 531 
L 1825 531 
L 1825 4091 
L 703 3866 
L 703 4441 
L 1819 4666 
L 2450 4666 
L 2450 531 
L 3481 531 
L 3481 0 
L 794 0 
L 794 531 
z
" transform="scale(0.015625)"/>
       </defs>
       <use xlink:href="#DejaVuSans-31"/>
       <use xlink:href="#DejaVuSans-30" x="63.623047"/>
       <use xlink:href="#DejaVuSans-30" x="127.246094"/>
       <use xlink:href="#DejaVuSans-30" x="190.869141"/>
      </g>
     </g>
    </g>
    <g id="ytick_3">
     <g id="line2d_12">
      <path d="M 57.17 157.144704 
L 601.2 157.144704 
" clip-path="url(#p73cead9aad)" style="fill: none; stroke: #b0b0b0; stroke-opacity: 0.3; stroke-width: 0.35; stroke-linecap: square"/>
     </g>
     <g id="line2d_13">
      <g>
       <use xlink:href="#m27d2bfb9a8" x="57.17" y="157.144704" style="stroke: #000000; stroke-width: 0.8"/>
      </g>
     </g>
     <g id="text_10">
      <!-- 2000 -->
      <g transform="translate(24.72 160.943923) scale(0.1 -0.1)">
       <defs>
        <path id="DejaVuSans-32" d="M 1228 531 
L 3431 531 
L 3431 0 
L 469 0 
L 469 531 
Q 828 903 1448 1529 
Q 2069 2156 2228 2338 
Q 2531 2678 2651 2914 
Q 2772 3150 2772 3378 
Q 2772 3750 2511 3984 
Q 2250 4219 1831 4219 
Q 1534 4219 1204 4116 
Q 875 4013 500 3803 
L 500 4441 
Q 881 4594 1212 4672 
Q 1544 4750 1819 4750 
Q 2544 4750 2975 4387 
Q 3406 4025 3406 3419 
Q 3406 3131 3298 2873 
Q 3191 2616 2906 2266 
Q 2828 2175 2409 1742 
Q 1991 1309 1228 531 
z
" transform="scale(0.015625)"/>
       </defs>
       <use xlink:href="#DejaVuSans-32"/>
       <use xlink:href="#DejaVuSans-30" x="63.623047"/>
       <use xlink:href="#DejaVuSans-30" x="127.246094"/>
       <use xlink:href="#DejaVuSans-30" x="190.869141"/>
      </g>
     </g>
    </g>
    <g id="ytick_4">
     <g id="line2d_14">
      <path d="M 57.17 118.998166 
L 601.2 118.998166 
" clip-path="url(#p73cead9aad)" style="fill: none; stroke: #b0b0b0; stroke-opacity: 0.3; stroke-width: 0.35; stroke-linecap: square"/>
     </g>
     <g id="line2d_15">
      <g>
       <use xlink:href="#m27d2bfb9a8" x="57.17" y="118.998166" style="stroke: #000000; stroke-width: 0.8"/>
      </g>
     </g>
     <g id="text_11">
      <!-- 3000 -->
      <g transform="translate(24.72 122.797385) scale(0.1 -0.1)">
       <defs>
        <path id="DejaVuSans-33" d="M 2597 2516 
Q 3050 2419 3304 2112 
Q 3559 1806 3559 1356 
Q 3559 666 3084 287 
Q 2609 -91 1734 -91 
Q 1441 -91 1130 -33 
Q 819 25 488 141 
L 488 750 
Q 750 597 1062 519 
Q 1375 441 1716 441 
Q 2309 441 2620 675 
Q 2931 909 2931 1356 
Q 2931 1769 2642 2001 
Q 2353 2234 1838 2234 
L 1294 2234 
L 1294 2753 
L 1863 2753 
Q 2328 2753 2575 2939 
Q 2822 3125 2822 3475 
Q 2822 3834 2567 4026 
Q 2313 4219 1838 4219 
Q 1578 4219 1281 4162 
Q 984 4106 628 3988 
L 628 4550 
Q 988 4650 1302 4700 
Q 1616 4750 1894 4750 
Q 2613 4750 3031 4423 
Q 3450 4097 3450 3541 
Q 3450 3153 3228 2886 
Q 3006 2619 2597 2516 
z
" transform="scale(0.015625)"/>
       </defs>
       <use xlink:href="#DejaVuSans-33"/>
       <use xlink:href="#DejaVuSans-30" x="63.623047"/>
       <use xlink:href="#DejaVuSans-30" x="127.246094"/>
       <use xlink:href="#DejaVuSans-30" x="190.869141"/>
      </g>
     </g>
    </g>
    <g id="ytick_5">
     <g id="line2d_16">
      <path d="M 57.17 80.851629 
L 601.2 80.851629 
" clip-path="url(#p73cead9aad)" style="fill: none; stroke: #b0b0b0; stroke-opacity: 0.3; stroke-width: 0.35; stroke-linecap: square"/>
     </g>
     <g id="line2d_17">
      <g>
       <use xlink:href="#m27d2bfb9a8" x="57.17" y="80.851629" style="stroke: #000000; stroke-width: 0.8"/>
      </g>
     </g>
     <g id="text_12">
      <!-- 4000 -->
      <g transform="translate(24.72 84.650847) scale(0.1 -0.1)">
       <defs>
        <path id="DejaVuSans-34" d="M 2419 4116 
L 825 1625 
L 2419 1625 
L 2419 4116 
z
M 2253 4666 
L 3047 4666 
L 3047 1625 
L 3713 1625 
L 3713 1100 
L 3047 1100 
L 3047 0 
L 2419 0 
L 2419 1100 
L 313 1100 
L 313 1709 
L 2253 4666 
z
" transform="scale(0.015625)"/>
       </defs>
       <use xlink:href="#DejaVuSans-34"/>
       <use xlink:href="#DejaVuSans-30" x="63.623047"/>
       <use xlink:href="#DejaVuSans-30" x="127.246094"/>
       <use xlink:href="#DejaVuSans-30" x="190.869141"/>
      </g>
     </g>
    </g>
    <g id="ytick_6">
     <g id="line2d_18">
      <path d="M 57.17 42.705091 
L 601.2 42.705091 
" clip-path="url(#p73cead9aad)" style="fill: none; stroke: #b0b0b0; stroke-opacity: 0.3; stroke-width: 0.35; stroke-linecap: square"/>
     </g>
     <g id="line2d_19">
      <g>
       <use xlink:href="#m27d2bfb9a8" x="57.17" y="42.705091" style="stroke: #000000; stroke-width: 0.8"/>
      </g>
     </g>
     <g id="text_13">
      <!-- 5000 -->
      <g transform="translate(24.72 46.50431) scale(0.1 -0.1)">
       <defs>
        <path id="DejaVuSans-35" d="M 691 4666 
L 3169 4666 
L 3169 4134 
L 1269 4134 
L 1269 2991 
Q 1406 3038 1543 3061 
Q 1681 3084 1819 3084 
Q 2600 3084 3056 2656 
Q 3513 2228 3513 1497 
Q 3513 744 3044 326 
Q 2575 -91 1722 -91 
Q 1428 -91 1123 -41 
Q 819 9 494 109 
L 494 744 
Q 775 591 1075 516 
Q 1375 441 1709 441 
Q 2250 441 2565 725 
Q 2881 1009 2881 1497 
Q 2881 1984 2565 2268 
Q 2250 2553 1709 2553 
Q 1456 2553 1204 2497 
Q 953 2441 691 2322 
L 691 4666 
z
" transform="scale(0.015625)"/>
       </defs>
       <use xlink:href="#DejaVuSans-35"/>
       <use xlink:href="#DejaVuSans-30" x="63.623047"/>
       <use xlink:href="#DejaVuSans-30" x="127.246094"/>
       <use xlink:href="#DejaVuSans-30" x="190.869141"/>
      </g>
     </g>
    </g>
    <g id="text_14">
     <!-- Genes -->
     <g transform="translate(18.640313 145.959671) rotate(-90) scale(0.1 -0.1)">
      <defs>
       <path id="DejaVuSans-47" d="M 3809 666 
L 3809 1919 
L 2778 1919 
L 2778 2438 
L 4434 2438 
L 4434 434 
Q 4069 175 3628 42 
Q 3188 -91 2688 -91 
Q 1594 -91 976 548 
Q 359 1188 359 2328 
Q 359 3472 976 4111 
Q 1594 4750 2688 4750 
Q 3144 4750 3555 4637 
Q 3966 4525 4313 4306 
L 4313 3634 
Q 3963 3931 3569 4081 
Q 3175 4231 2741 4231 
Q 1884 4231 1454 3753 
Q 1025 3275 1025 2328 
Q 1025 1384 1454 906 
Q 1884 428 2741 428 
Q 3075 428 3337 486 
Q 3600 544 3809 666 
z
" transform="scale(0.015625)"/>
      </defs>
      <use xlink:href="#DejaVuSans-47"/>
      <use xlink:href="#DejaVuSans-65" x="77.490234"/>
      <use xlink:href="#DejaVuSans-6e" x="139.013672"/>
      <use xlink:href="#DejaVuSans-65" x="202.392578"/>
      <use xlink:href="#DejaVuSans-73" x="263.916016"/>
     </g>
    </g>
   </g>
   <g id="patch_17">
    <path d="M 57.17 233.437779 
L 57.17 26.88 
" style="fill: none; stroke: #000000; stroke-width: 0.8; stroke-linejoin: miter; stroke-linecap: square"/>
   </g>
   <g id="patch_18">
    <path d="M 601.2 233.437779 
L 601.2 26.88 
" style="fill: none; stroke: #000000; stroke-width: 0.8; stroke-linejoin: miter; stroke-linecap: square"/>
   </g>
   <g id="patch_19">
    <path d="M 57.17 233.437779 
L 601.2 233.437779 
" style="fill: none; stroke: #000000; stroke-width: 0.8; stroke-linejoin: miter; stroke-linecap: square"/>
   </g>
   <g id="patch_20">
    <path d="M 57.17 26.88 
L 601.2 26.88 
" style="fill: none; stroke: #000000; stroke-width: 0.8; stroke-linejoin: miter; stroke-linecap: square"/>
   </g>
   <g id="text_15">
    <!-- Surfaceome source coverage and overlap -->
    <g transform="translate(203.89 20.88) scale(0.12 -0.12)">
     <defs>
      <path id="DejaVuSans-53" d="M 3425 4513 
L 3425 3897 
Q 3066 4069 2747 4153 
Q 2428 4238 2131 4238 
Q 1616 4238 1336 4038 
Q 1056 3838 1056 3469 
Q 1056 3159 1242 3001 
Q 1428 2844 1947 2747 
L 2328 2669 
Q 3034 2534 3370 2195 
Q 3706 1856 3706 1288 
Q 3706 609 3251 259 
Q 2797 -91 1919 -91 
Q 1588 -91 1214 -16 
Q 841 59 441 206 
L 441 856 
Q 825 641 1194 531 
Q 1563 422 1919 422 
Q 2459 422 2753 634 
Q 3047 847 3047 1241 
Q 3047 1584 2836 1778 
Q 2625 1972 2144 2069 
L 1759 2144 
Q 1053 2284 737 2584 
Q 422 2884 422 3419 
Q 422 4038 858 4394 
Q 1294 4750 2059 4750 
Q 2388 4750 2728 4690 
Q 3069 4631 3425 4513 
z
" transform="scale(0.015625)"/>
      <path id="DejaVuSans-20" transform="scale(0.015625)"/>
      <path id="DejaVuSans-76" d="M 191 3500 
L 800 3500 
L 1894 563 
L 2988 3500 
L 3597 3500 
L 2284 0 
L 1503 0 
L 191 3500 
z
" transform="scale(0.015625)"/>
      <path id="DejaVuSans-64" d="M 2906 2969 
L 2906 4863 
L 3481 4863 
L 3481 0 
L 2906 0 
L 2906 525 
Q 2725 213 2448 61 
Q 2172 -91 1784 -91 
Q 1150 -91 751 415 
Q 353 922 353 1747 
Q 353 2572 751 3078 
Q 1150 3584 1784 3584 
Q 2172 3584 2448 3432 
Q 2725 3281 2906 2969 
z
M 947 1747 
Q 947 1113 1208 752 
Q 1469 391 1925 391 
Q 2381 391 2643 752 
Q 2906 1113 2906 1747 
Q 2906 2381 2643 2742 
Q 2381 3103 1925 3103 
Q 1469 3103 1208 2742 
Q 947 2381 947 1747 
z
" transform="scale(0.015625)"/>
     </defs>
     <use xlink:href="#DejaVuSans-53"/>
     <use xlink:href="#DejaVuSans-75" x="63.476562"/>
     <use xlink:href="#DejaVuSans-72" x="126.855469"/>
     <use xlink:href="#DejaVuSans-66" x="167.96875"/>
     <use xlink:href="#DejaVuSans-61" x="203.173828"/>
     <use xlink:href="#DejaVuSans-63" x="264.453125"/>
     <use xlink:href="#DejaVuSans-65" x="319.433594"/>
     <use xlink:href="#DejaVuSans-6f" x="380.957031"/>
     <use xlink:href="#DejaVuSans-6d" x="442.138672"/>
     <use xlink:href="#DejaVuSans-65" x="539.550781"/>
     <use xlink:href="#DejaVuSans-20" x="601.074219"/>
     <use xlink:href="#DejaVuSans-73" x="632.861328"/>
     <use xlink:href="#DejaVuSans-6f" x="684.960938"/>
     <use xlink:href="#DejaVuSans-75" x="746.142578"/>
     <use xlink:href="#DejaVuSans-72" x="809.521484"/>
     <use xlink:href="#DejaVuSans-63" x="848.384766"/>
     <use xlink:href="#DejaVuSans-65" x="903.365234"/>
     <use xlink:href="#DejaVuSans-20" x="964.888672"/>
     <use xlink:href="#DejaVuSans-63" x="996.675781"/>
     <use xlink:href="#DejaVuSans-6f" x="1051.65625"/>
     <use xlink:href="#DejaVuSans-76" x="1112.837891"/>
     <use xlink:href="#DejaVuSans-65" x="1172.017578"/>
     <use xlink:href="#DejaVuSans-72" x="1233.541016"/>
     <use xlink:href="#DejaVuSans-61" x="1274.654297"/>
     <use xlink:href="#DejaVuSans-67" x="1335.933594"/>
     <use xlink:href="#DejaVuSans-65" x="1399.410156"/>
     <use xlink:href="#DejaVuSans-20" x="1460.933594"/>
     <use xlink:href="#DejaVuSans-61" x="1492.720703"/>
     <use xlink:href="#DejaVuSans-6e" x="1554"/>
     <use xlink:href="#DejaVuSans-64" x="1617.378906"/>
     <use xlink:href="#DejaVuSans-20" x="1680.855469"/>
     <use xlink:href="#DejaVuSans-6f" x="1712.642578"/>
     <use xlink:href="#DejaVuSans-76" x="1773.824219"/>
     <use xlink:href="#DejaVuSans-65" x="1833.003906"/>
     <use xlink:href="#DejaVuSans-72" x="1894.527344"/>
     <use xlink:href="#DejaVuSans-6c" x="1935.640625"/>
     <use xlink:href="#DejaVuSans-61" x="1963.423828"/>
     <use xlink:href="#DejaVuSans-70" x="2024.703125"/>
    </g>
   </g>
   <g id="legend_1">
    <g id="patch_21">
     <path d="M 424.928125 43.478437 
L 444.928125 43.478437 
L 444.928125 36.478437 
L 424.928125 36.478437 
z
" style="fill: #94a3b8"/>
    </g>
    <g id="text_16">
     <!-- source list -->
     <g transform="translate(452.928125 43.478437) scale(0.1 -0.1)">
      <use xlink:href="#DejaVuSans-73"/>
      <use xlink:href="#DejaVuSans-6f" x="52.099609"/>
      <use xlink:href="#DejaVuSans-75" x="113.28125"/>
      <use xlink:href="#DejaVuSans-72" x="176.660156"/>
      <use xlink:href="#DejaVuSans-63" x="215.523438"/>
      <use xlink:href="#DejaVuSans-65" x="270.503906"/>
      <use xlink:href="#DejaVuSans-20" x="332.027344"/>
      <use xlink:href="#DejaVuSans-6c" x="363.814453"/>
      <use xlink:href="#DejaVuSans-69" x="391.597656"/>
      <use xlink:href="#DejaVuSans-73" x="419.380859"/>
      <use xlink:href="#DejaVuSans-74" x="471.480469"/>
     </g>
    </g>
    <g id="patch_22">
     <path d="M 424.928125 58.156563 
L 444.928125 58.156563 
L 444.928125 51.156563 
L 424.928125 51.156563 
z
" style="fill: #2563eb"/>
    </g>
    <g id="text_17">
     <!-- overlap with core+probable -->
     <g transform="translate(452.928125 58.156563) scale(0.1 -0.1)">
      <defs>
       <path id="DejaVuSans-77" d="M 269 3500 
L 844 3500 
L 1563 769 
L 2278 3500 
L 2956 3500 
L 3675 769 
L 4391 3500 
L 4966 3500 
L 4050 0 
L 3372 0 
L 2619 2869 
L 1863 0 
L 1184 0 
L 269 3500 
z
" transform="scale(0.015625)"/>
       <path id="DejaVuSans-2b" d="M 2944 4013 
L 2944 2272 
L 4684 2272 
L 4684 1741 
L 2944 1741 
L 2944 0 
L 2419 0 
L 2419 1741 
L 678 1741 
L 678 2272 
L 2419 2272 
L 2419 4013 
L 2944 4013 
z
" transform="scale(0.015625)"/>
      </defs>
      <use xlink:href="#DejaVuSans-6f"/>
      <use xlink:href="#DejaVuSans-76" x="61.181641"/>
      <use xlink:href="#DejaVuSans-65" x="120.361328"/>
      <use xlink:href="#DejaVuSans-72" x="181.884766"/>
      <use xlink:href="#DejaVuSans-6c" x="222.998047"/>
      <use xlink:href="#DejaVuSans-61" x="250.78125"/>
      <use xlink:href="#DejaVuSans-70" x="312.060547"/>
      <use xlink:href="#DejaVuSans-20" x="375.537109"/>
      <use xlink:href="#DejaVuSans-77" x="407.324219"/>
      <use xlink:href="#DejaVuSans-69" x="489.111328"/>
      <use xlink:href="#DejaVuSans-74" x="516.894531"/>
      <use xlink:href="#DejaVuSans-68" x="556.103516"/>
      <use xlink:href="#DejaVuSans-20" x="619.482422"/>
      <use xlink:href="#DejaVuSans-63" x="651.269531"/>
      <use xlink:href="#DejaVuSans-6f" x="706.25"/>
      <use xlink:href="#DejaVuSans-72" x="767.431641"/>
      <use xlink:href="#DejaVuSans-65" x="806.294922"/>
      <use xlink:href="#DejaVuSans-2b" x="867.818359"/>
      <use xlink:href="#DejaVuSans-70" x="951.607422"/>
      <use xlink:href="#DejaVuSans-72" x="1015.083984"/>
      <use xlink:href="#DejaVuSans-6f" x="1053.947266"/>
      <use xlink:href="#DejaVuSans-62" x="1115.128906"/>
      <use xlink:href="#DejaVuSans-61" x="1178.605469"/>
      <use xlink:href="#DejaVuSans-62" x="1239.884766"/>
      <use xlink:href="#DejaVuSans-6c" x="1303.361328"/>
      <use xlink:href="#DejaVuSans-65" x="1331.144531"/>
     </g>
    </g>
   </g>
  </g>
 </g>
 <defs>
  <clipPath id="p73cead9aad">
   <rect x="57.17" y="26.88" width="544.03" height="206.557779"/>
  </clipPath>
 </defs>
</svg>
